<svg xmlns="http://www.w3.org/2000/svg" enable-background="new 0 0 256 256" viewBox="0 0 256 256" id="github">
  <path fill="#87828E" d="M246.22,129.371c0,53.479-35.514,98.673-84.247,113.251c-2.38,0.712-4.773-1.097-4.773-3.581v-41.51
						c0-3.66-0.77-7.14-2.15-10.29c26.91-1.62,48.24-23.95,48.24-51.28c0-7.16-1.46-13.99-4.11-20.17
						c-2.65-6.2-6.48-11.75-11.2-16.41l-7.55-36.21l-24.17,21.61c-1.44-0.13-2.89-0.21-4.35-0.21h-40.58
						c-1.47,0-2.92,0.08-4.36,0.21L82.8,63.171l-7.55,36.21c-9.45,9.31-15.31,22.25-15.31,36.58c0,13.66,5.33,26.07,14.03,35.27
						c8.7,9.21,20.76,15.19,34.22,16.01c-1.38,3.15-2.16,6.63-2.16,10.29v4.26c-5.72,2.75-12.73,1.31-16.86-3.95l-0.03-0.03
						c-14.14-18.41-37.59-16.53-36.39-16.37c8.17,8.74,17.78,16.17,23.5,24.81c9.03,13.67,19.39,17.56,29.78,13.69v21.75
						c0,2.005-1.857,3.511-3.814,3.074c-0.182-0.041-0.364-0.082-0.546-0.124c-52.62-11.96-91.89-59.03-91.89-115.27
						c0-62.77,48.92-114.12,110.72-117.98c0.94-0.06,1.88-0.11,2.82-0.14c0.43-0.03,0.87-0.04,1.31-0.05
						c1.12-0.03,2.24-0.05,3.37-0.05s2.25,0.02,3.37,0.05c0.44,0.01,0.88,0.02,1.31,0.05c0.94,0.03,1.88,0.08,2.82,0.14
						C197.3,15.251,246.22,66.601,246.22,129.371z"></path>
  <path fill="#A4A4A5" d="M135.5,11.391c-2.52,0.16-5.02,0.39-7.5,0.71c-58.21,7.36-103.22,57.06-103.22,117.27
						c0,50.75,31.98,94.04,76.89,110.79c1.44,0.54,2.89,1.05,4.36,1.53l0,0c0,2.005-1.857,3.511-3.814,3.074
						c-0.182-0.041-0.364-0.082-0.546-0.124c-52.62-11.96-91.89-59.03-91.89-115.27c0-62.77,48.92-114.12,110.72-117.98
						c0.94-0.06,1.88-0.11,2.82-0.14c0.43-0.03,0.87-0.04,1.31-0.05c1.12-0.03,2.24-0.05,3.37-0.05s2.25,0.02,3.37,0.05
						c0.44,0.01,0.88,0.02,1.31,0.05C133.62,11.281,134.56,11.331,135.5,11.391z"></path>
  <path fill="#796E84" d="M246.22,129.371c0,53.479-35.514,98.673-84.247,113.251c-2.38,0.712-4.773-1.097-4.773-3.581l0,0
						c43.4-17.49,74.02-60.01,74.02-109.67c0-60.21-45.01-109.91-103.22-117.27c-2.48-0.32-4.98-0.55-7.5-0.71
						c0.94-0.06,1.88-0.11,2.82-0.14c0.43-0.03,0.87-0.04,1.31-0.05c1.12-0.03,2.24-0.05,3.37-0.05s2.25,0.02,3.37,0.05
						c0.44,0.01,0.88,0.02,1.31,0.05c0.94,0.03,1.88,0.08,2.82,0.14C197.3,15.251,246.22,66.601,246.22,129.371z"></path>
  <g>
    <path fill="#5F266D" d="M131.477,7.203C61.798,5.333,5.78,61.431,5.78,129.371c0,56.494,38.955,106.519,95.562,119.297
			c4.438,0.997,8.688-2.393,8.688-6.977v-21.75c0-2.789-2.79-4.721-5.396-3.749c-9.067,3.376-17.492-0.71-25.049-12.149
			c-4.208-6.356-10.091-11.815-16.267-17.715c6.846,1.485,15.892,5.122,22.649,13.92c5.024,6.532,14.03,8.881,21.795,5.148
			c1.386-0.666,2.267-2.067,2.267-3.605v-4.26c0-3.001,0.614-5.923,1.824-8.685c1.114-2.544-0.646-5.428-3.421-5.598
			c-24.901-1.517-44.493-22.151-44.493-47.287c0-12.783,5.014-24.762,14.117-33.73c0.562-0.554,0.948-1.261,1.109-2.033
			l6.135-29.425l19.003,16.99c0.826,0.738,1.918,1.099,3.025,1.002c1.446-0.13,2.755-0.194,4.001-0.194h40.58
			c1.24,0,2.545,0.063,3.99,0.194c1.107,0.098,2.199-0.264,3.025-1.002l19.003-16.99l6.136,29.425
			c0.161,0.771,0.546,1.477,1.105,2.03c8.829,8.717,14.12,20.617,14.12,33.734c0,25.015-19.538,45.785-44.48,47.287
			c-2.773,0.167-4.54,3.049-3.424,5.598c1.204,2.748,1.814,5.67,1.814,8.685v41.51c0,5.171,4.972,8.893,9.92,7.413
			c49.456-14.794,87.1-60.85,87.1-117.083C250.22,62.395,196.188,8.712,131.477,7.203z M161.2,238.678v-41.147
			c0-2.327-0.267-4.615-0.794-6.843c26.672-4.105,46.884-27.221,46.884-54.727c0-14.776-5.769-28.386-15.636-38.555l-7.309-35.051
			c-0.627-3.005-4.285-4.219-6.582-2.166l-22.9,20.475c-1.024-0.062-2.001-0.093-2.953-0.093h-40.58
			c-0.957,0-1.938,0.031-2.964,0.093l-22.9-20.475c-2.294-2.051-5.954-0.844-6.582,2.166l-7.308,35.049
			C61.483,107.787,55.94,121.43,55.94,135.961c0,27.854,20.493,50.653,46.891,54.724c-0.532,2.233-0.8,4.522-0.8,6.846v1.426
			c-3.589,0.751-7.344-0.568-9.714-3.586c-14.568-18.563-38.125-18.897-41.127-17.65c-2.682,1.111-3.368,4.644-1.174,6.651
			c8.176,8.705,17.544,15.997,22.898,24.084c10.262,15.534,21.323,17.731,29.118,16.616v15.548
			c-51.989-12.067-88.25-57.736-88.25-111.249c0-62.8,51.573-115.909,117.528-114.17c60.61,1.455,110.911,51.739,110.911,114.17
			C242.22,179.331,208.926,224.222,161.2,238.678z"></path>
    <path fill="#5F266D" d="M96.653 29.736C75.92 36.64 66.529 52.025 66.139 52.677c-1.131 1.892-.516 4.337 1.373 5.474 1.893 1.138 4.346.523 5.487-1.358.082-.135 8.374-13.537 26.182-19.467 2.096-.698 3.229-2.963 2.531-5.059C101.014 30.171 98.75 29.039 96.653 29.736zM117.314 26.479C117.314 26.479 117.313 26.479 117.314 26.479c-1.685 0-3.371.061-5.012.178-2.204.158-3.862 2.073-3.704 4.276.151 2.106 1.907 3.714 3.986 3.714 0 0 2.373-.167 4.731-.168 2.209 0 4-1.792 3.999-4.001S119.523 26.479 117.314 26.479z"></path>
  </g>
</svg>
