<svg xmlns="http://www.w3.org/2000/svg" enable-background="new 0 0 256 256" viewBox="0 0 256 256" id="gmail">
  <path fill="#3193F3" d="M70.33,62.067v146.34H37.67c-8.47,0-15.34-6.87-15.34-15.34V68.647c0-17.12,19.36-27.07,33.28-17.11
				L70.33,62.067z"></path>
  <path fill="#44C7B6" d="M185.67,62.067v146.34h32.66c8.47,0,15.34-6.87,15.34-15.34V68.647c0-17.12-19.36-27.07-33.28-17.11
				L185.67,62.067z"></path>
  <path fill="#35B1FC" d="M52.67,208.407h-15c-8.47,0-15.34-6.87-15.34-15.34V68.647c0-15.26,15.37-24.82,28.57-19.66
				c-7.65,2.92-13.57,10.19-13.57,19.66v124.42C37.33,201.537,44.2,208.407,52.67,208.407z"></path>
  <path fill="#3BB2A0" d="M233.67,68.647v124.42c0,8.47-6.87,15.34-15.34,15.34h-15c8.47,0,15.34-6.87,15.34-15.34V68.647
				c0-9.47-5.92-16.74-13.57-19.66C218.3,43.827,233.67,53.387,233.67,68.647z"></path>
  <path fill="#EA2A6A" d="M70.33 62.067v63l-48-35.53v-20.89c0-17.12 19.36-27.07 33.28-17.11L70.33 62.067zM233.67 68.647v20.89l-48 35.53v-63l14.72-10.53C214.31 41.577 233.67 51.527 233.67 68.647z"></path>
  <path fill="#FF4A73" d="M128 106.407v63.33l-57.67-44.67-48-35.53v-20.89c0-17.12 19.36-27.07 33.28-17.11l14.72 10.53L128 106.407zM128 106.407v63.33l57.67-44.67 48-35.53v-20.89c0-17.12-19.36-27.07-33.28-17.11l-14.72 10.53L128 106.407z"></path>
  <path fill="#EA2A6A" d="M70.33,62.067v63l-48-35.53v-20.89c0-17.12,19.36-27.07,33.28-17.11L70.33,62.067z"></path>
  <path fill="#F9D335" d="M233.67,68.647v20.89l-48,35.53v-63l14.72-10.53C214.31,41.577,233.67,51.527,233.67,68.647z"></path>
  <path fill="#F973A3" d="M50.9 48.987c-7.65 2.92-13.57 10.19-13.57 19.66v31.99l-15-11.1v-20.89C22.33 53.916 37.095 43.673 50.9 48.987zM233.67 68.647v20.89l-15 11.1v-31.99c0-9.47-5.92-16.74-13.57-19.66C218.611 43.786 233.67 53.593 233.67 68.647z"></path>
  <path fill="#F973A3" d="M50.9,48.987c-7.65,2.92-13.57,10.19-13.57,19.66v31.99l-15-11.1v-20.89
				C22.33,53.916,37.095,43.673,50.9,48.987z"></path>
  <path fill="#F2C300" d="M233.67,68.647v20.89l-15,11.1v-31.99c0-9.47-5.92-16.74-13.57-19.66
				C218.611,43.786,233.67,53.593,233.67,68.647z"></path>
  <g>
    <path fill="#5F266D" d="M224.08,46.381c-8.382-4.311-18.353-3.581-26.018,1.903c-19.064,13.638-4.915,3-70.063,53.078
			C62.85,51.282,77,61.921,57.938,48.284c-7.777-5.565-17.792-6.133-26.018-1.904c-8.38,4.308-13.59,12.838-13.59,22.267
			c0,5.946,0,119.094,0,124.42c0,10.664,8.676,19.34,19.34,19.34h32.66c2.209,0,4-1.791,4-4v-75.182l51.164,39.631
			c1.448,1.103,3.397,1.231,5.012,0l51.164-39.631v75.183c0,2.209,1.791,4,4,4h32.66c10.664,0,19.34-8.676,19.34-19.34
			c0-5.42,0-118.667,0-124.42C237.67,59.231,232.471,50.694,224.08,46.381z M66.33,204.407H37.67c-6.253,0-11.34-5.087-11.34-11.34
			V97.474l40,29.607V204.407z M66.33,117.13l-40-29.609V68.647c0-6.511,3.457-12.175,9.248-15.152
			c5.428-2.794,11.59-2.506,16.622,0.581c0.943,0.577,0.507,0.303,14.13,10.048V117.13z M181.67,123.107L128,164.678l-53.67-41.571
			V70.189l51.231,39.39c1.366,1.049,3.429,1.114,4.877,0l51.231-39.39V123.107z M229.67,193.068c0,6.253-5.087,11.34-11.34,11.34
			h-28.66v-77.324l40-29.609V193.068z M229.67,87.522l-40,29.61V64.124l13.047-9.334c5.296-3.788,11.914-4.272,17.705-1.295
			s9.248,8.641,9.248,15.152V87.522z"></path>
    <path fill="#5F266D" d="M203.33 190.738c2.209 0 4-1.791 4-4v-24c0-2.209-1.791-4-4-4s-4 1.791-4 4v24C199.33 188.946 201.121 190.738 203.33 190.738zM203.33 151.738c2.209 0 4-1.791 4-4v-6.667c0-2.209-1.791-4-4-4s-4 1.791-4 4v6.667C199.33 149.946 201.121 151.738 203.33 151.738z"></path>
  </g>
</svg>
