<svg xmlns="http://www.w3.org/2000/svg" enable-background="new 0 0 256 256" viewBox="0 0 256 256" id="linkedin">
  <path fill="#3193F3" d="M179.865,16.977H76.135c-32.668,0-59.157,26.489-59.157,59.157v103.731
						c0,32.668,26.489,59.157,59.157,59.157h103.731c32.668,0,59.157-26.489,59.157-59.157V76.135
						C239.023,43.467,212.533,16.977,179.865,16.977z"></path>
  <path fill="#35B1FC" d="M94.488,239.023H76.135c-32.668,0-59.157-26.489-59.157-59.157V76.135
						c0-32.668,26.489-59.157,59.157-59.157h18.353c-32.668,0-59.157,26.489-59.157,59.157v103.731
						C35.33,212.533,61.819,239.023,94.488,239.023z"></path>
  <path fill="#307FED" d="M239.023,76.135v103.731c0,32.668-26.489,59.157-59.157,59.157h-18.353
						c32.668,0,59.157-26.489,59.157-59.157V76.135c0-32.668-26.489-59.157-59.157-59.157h18.353
						C212.533,16.977,239.023,43.467,239.023,76.135z"></path>
  <g>
    <circle cx="74.996" cy="71.463" r="15.963" fill="#FFE2E2"></circle>
    <rect width="28.455" height="93" x="60.768" y="102" fill="#FFE2E2"></rect>
    <path fill="#FFE2E2" d="M180.728,112.824c-10.088-6.974-23.982-8.558-35.416-4.238c-2.818,1.065-5.465,2.237-7.854,3.399V102
					h-28.455v93l28.455,0c0,0,0-44.418,0-44.418c0-9.246,7.495-16.741,16.741-16.741h0c9.246,0,16.741,7.495,16.741,16.741V195
					l26.026,0c0,0,0-51.232,0-51.232C196.967,131.421,190.897,119.852,180.728,112.824z"></path>
  </g>
  <g>
    <path fill="#5F266D" d="M179.863,12.981H76.137c-34.824,0-63.156,28.332-63.156,63.156v103.726
			c0,34.824,28.332,63.156,63.156,63.156h103.726c34.824,0,63.156-28.332,63.156-63.156V76.137
			C243.019,41.313,214.687,12.981,179.863,12.981z M235.019,179.863c0,30.413-24.743,55.156-55.156,55.156H76.137
			c-30.413,0-55.156-24.743-55.156-55.156V76.137c0-30.413,24.743-55.156,55.156-55.156h103.726
			c30.413,0,55.156,24.743,55.156,55.156V179.863z"></path>
    <path fill="#5F266D" d="M152 46.5h5.654c2.209 0 4-1.791 4-4s-1.791-4-4-4H152c-2.209 0-4 1.791-4 4S149.791 46.5 152 46.5zM172.654 46.5h15c2.209 0 4-1.791 4-4s-1.791-4-4-4h-15c-2.209 0-4 1.791-4 4S170.445 46.5 172.654 46.5zM74.996 51.5c-11.008 0-19.963 8.955-19.963 19.963 0 11.007 8.955 19.962 19.963 19.962 11.007 0 19.962-8.955 19.962-19.962C94.958 60.455 86.003 51.5 74.996 51.5zM74.996 83.425c-6.596 0-11.963-5.366-11.963-11.962S68.399 59.5 74.996 59.5s11.962 5.367 11.962 11.963S81.592 83.425 74.996 83.425zM89.223 98H60.768c-2.209 0-4 1.791-4 4v93c0 2.209 1.791 4 4 4h28.455c2.209 0 4-1.791 4-4v-93C93.223 99.791 91.432 98 89.223 98zM85.223 191H64.768v-85h20.455V191zM183.003 109.533c-11.06-7.646-26.409-9.484-39.104-4.689-.807.305-1.622.626-2.44.963V102c0-2.209-1.791-4-4-4h-28.455c-2.209 0-4 1.791-4 4v93c0 2.209 1.791 4 4 4h28.455c2.209 0 4-1.791 4-4v-44.418c0-7.025 5.716-12.741 12.742-12.741 7.025 0 12.741 5.716 12.741 12.741V195c0 2.209 1.791 4 4 4h26.026c2.209 0 4-1.791 4-4v-51.232C200.967 130.106 194.251 117.308 183.003 109.533zM192.967 191h-18.026v-40.418c0-11.437-9.305-20.741-20.741-20.741-11.437 0-20.742 9.305-20.742 20.741V191h-20.455v-85h20.455v5.984c0 2.949 3.095 4.888 5.748 3.598 2.536-1.232 5.066-2.327 7.52-3.254 10.312-3.896 22.764-2.409 31.728 3.787 9.088 6.281 14.513 16.619 14.513 27.654V191z"></path>
  </g>
</svg>
